<?xml version="1.0" encoding="UTF-8"?>
<svg width="38px" height="36px" viewBox="0 0 38 36" version="1.1" xmlns="http://www.w3.org/2000/svg" xmlns:xlink="http://www.w3.org/1999/xlink">
    <!-- Generator: Sketch 47 (45396) - http://www.bohemiancoding.com/sketch -->
    <title>if_18-youtube_104482</title>
    <desc>Created with Sketch.</desc>
    <defs></defs>
    <g id="BITS_Landing_Page" stroke="none" stroke-width="1" fill="none" fill-rule="evenodd">
        <g id="BITS_2017_Images" transform="translate(-291.000000, -836.000000)" fill-rule="nonzero" fill="#FFFFFF">
            <g id="if_18-youtube_104482" transform="translate(291.000000, 836.000000)">
                <path d="M30.264876,17.4857143 L6.76369546,17.4857143 C3.02814851,17.4857143 0,20.4444333 0,24.0899584 L0,29.3964928 C0,33.0420179 3.02814851,36 6.76369546,36 L30.264876,36 C33.999668,36 37.0285714,33.0420179 37.0285714,29.3964928 L37.0285714,24.0899584 C37.0285714,20.4444333 33.999668,17.4857143 30.264876,17.4857143 Z M11.7011403,21.6168672 L9.51628322,21.6168672 L9.51628322,32.2137239 L7.4054123,32.2137239 L7.4054123,21.6168672 L5.22206513,21.6168672 L5.22206513,19.8143699 L11.7011403,19.8143699 L11.7011403,21.6168672 L11.7011403,21.6168672 Z M17.8729464,32.2137239 L16.0006431,32.2137239 L16.0006431,31.2115177 C15.6526061,31.5821866 15.2939996,31.8651625 14.919539,32.0560238 C14.5450783,32.2549912 14.183452,32.3478427 13.8316402,32.3478427 C13.3967827,32.3478427 13.0736594,32.212987 12.8524558,31.9388541 C12.635027,31.6654582 12.5240478,31.2601542 12.5240478,30.7126254 L12.5240478,23.0656447 L14.396351,23.0656447 L14.396351,30.0832988 C14.396351,30.2999522 14.4378739,30.4554416 14.512615,30.5519776 C14.5933958,30.6514613 14.7217392,30.6971501 14.8976451,30.6971501 C15.0335381,30.6971501 15.208689,30.6337753 15.4193232,30.5055519 C15.6314672,30.3758546 15.8247372,30.213733 16.0006431,30.0132918 L16.0006431,23.0649078 L17.8729464,23.0649078 L17.8729464,32.2137239 L17.8729464,32.2137239 Z M24.6706151,30.3250074 C24.6706151,30.971283 24.5233977,31.4679646 24.2297179,31.8143153 C23.9375479,32.160666 23.51024,32.3308936 22.9568536,32.3308936 C22.5884327,32.3308936 22.2607796,32.266045 21.9761593,32.1319262 C21.6900291,31.9992813 21.420508,31.7951555 21.1751457,31.5121796 L21.1751457,32.212987 L19.2801936,32.212987 L19.2801936,19.8143699 L21.1751457,19.8143699 L21.1751457,23.8077194 C21.4288126,23.5313758 21.6968237,23.3169332 21.9769143,23.1732345 C22.2630445,23.0265881 22.5506846,22.9558442 22.8420996,22.9558442 C23.4347439,22.9558442 23.8862106,23.1489162 24.1987645,23.538745 C24.5128282,23.9285737 24.6691051,24.4996839 24.6691051,25.2483908 L24.6691051,30.3250074 L24.6706151,30.3250074 Z M31.1655444,27.8600223 L27.5824996,27.8600223 L27.5824996,29.5836696 C27.5824996,30.064139 27.6428965,30.398699 27.7652001,30.5851389 C27.8905237,30.7723156 28.1011578,30.8636932 28.4008773,30.8636932 C28.7119212,30.8636932 28.9270851,30.7848432 29.0524086,30.6271431 C29.1732024,30.4679692 29.238129,30.1216185 29.238129,29.5836696 L29.238129,29.1673118 L31.1655444,29.1673118 L31.1655444,29.6367275 C31.1655444,30.5740851 30.9322615,31.2807879 30.4589009,31.7575727 C29.99309,32.2299361 29.2909763,32.4642755 28.3578445,32.4642755 C27.5175729,32.4642755 26.8554722,32.2144608 26.374562,31.7118839 C25.8951618,31.2122546 25.6505544,30.5188164 25.6505544,29.6374645 L25.6505544,25.528419 C25.6505544,24.7377078 25.9178106,24.0870107 26.4485482,23.5881184 C26.9777758,23.089226 27.6595056,22.8401483 28.4982673,22.8401483 C29.3566579,22.8401483 30.0157388,23.0708031 30.4755101,23.5335866 C30.9352813,23.9971069 31.1655444,24.6603316 31.1655444,25.5276821 L31.1655444,27.8600223 L31.1655444,27.8600223 Z" id="Shape"></path>
                <path d="M28.5374176,24.6857143 C28.1659499,24.6857143 27.9014199,24.7699736 27.7400754,24.9460833 C27.5749787,25.1115656 27.4980586,25.3947074 27.4980586,25.790195 L27.4980586,26.7428571 L29.5552014,26.7428571 L29.5552014,25.790195 C29.5552014,25.3947074 29.4726531,25.1108065 29.3094324,24.9460833 C29.1527782,24.7707327 28.8910623,24.6857143 28.5374176,24.6857143 Z" id="Shape"></path>
                <path d="M22.2224839,24.6857143 C22.0476615,24.6857143 21.8708525,24.7130401 21.7009967,24.7697937 C21.528161,24.825146 21.3592984,24.9169327 21.1924225,25.0360452 L21.1924225,30.4542624 C21.390091,30.5943947 21.5857729,30.7022966 21.7764882,30.7639548 C21.9662102,30.8235111 22.1628854,30.8571429 22.3724736,30.8571429 C22.6754328,30.8571429 22.8959474,30.7954846 23.0379906,30.6707668 C23.1780471,30.5474504 23.2495654,30.3505644 23.2495654,30.0724017 L23.2495654,25.5804593 C23.2495654,25.2847801 23.1661274,25.063371 22.9913051,24.9113274 C22.8105228,24.7613858 22.5542491,24.6857143 22.2224839,24.6857143 Z" id="Shape"></path>
                <polygon id="Shape" points="9.09237644 14.4 11.5445687 14.4 11.5445687 8.42654008 14.4 0 11.9072498 0 10.3894489 5.75596073 10.2350169 5.75596073 8.64155992 0 6.17142857 0 9.09237644 8.69530694"></polygon>
                <path d="M17.4704912,14.4285714 C18.4371555,14.4285714 19.1952639,14.1662911 19.747861,13.6417304 C20.2966523,13.1148068 20.5714286,12.3957019 20.5714286,11.4741763 L20.5714286,5.91036746 C20.5714286,5.09044602 20.2905631,4.41544826 19.7311157,3.89482572 C19.1678624,3.37577843 18.4462894,3.11428571 17.5663965,3.11428571 C16.5997322,3.11428571 15.8302065,3.36160111 15.2578194,3.85544428 C14.6869547,4.34928745 14.4,5.01168316 14.4,5.84893243 L14.4,11.4316444 C14.4,12.3476565 14.6793432,13.0722749 15.2372683,13.6157387 C15.7951935,14.1568395 16.5411234,14.4285714 17.4704912,14.4285714 Z M16.589076,5.76701904 C16.589076,5.53309333 16.6705194,5.34406245 16.8296004,5.19598827 C16.9947706,5.05106459 17.2040877,4.98096564 17.464402,4.98096564 C17.7452675,4.98096564 17.9728522,5.05106459 18.1463951,5.19598827 C18.3191768,5.34406245 18.4051871,5.53309333 18.4051871,5.76701904 L18.4051871,11.6356402 C18.4051871,11.9231247 18.3206991,12.151537 18.1494397,12.3161514 C17.9797026,12.4815534 17.7513567,12.5626791 17.464402,12.5626791 C17.1835365,12.5626791 16.9666079,12.4839163 16.8143773,12.3185142 C16.6644302,12.1570504 16.5883149,11.9302133 16.5883149,11.6348526 L16.5883149,5.76701904 L16.589076,5.76701904 Z" id="Shape"></path>
                <path d="M24.1377451,14.4 C24.5442696,14.4 24.9616347,14.2887951 25.3913891,14.0752816 C25.8257896,13.8588027 26.241606,13.5422393 26.6372898,13.1292984 L26.6372898,14.2524681 L28.8,14.2524681 L28.8,4.11428571 L26.6372898,4.11428571 L26.6372898,11.8096666 C26.4359634,12.0298523 26.2121814,12.2107457 25.9721384,12.3545707 C25.7274494,12.496913 25.526123,12.5680842 25.3673848,12.5680842 C25.1645098,12.5680842 25.0150636,12.5147058 24.9275641,12.4042423 C24.8385159,12.2982269 24.7881843,12.1247472 24.7881843,11.8867687 L24.7881843,4.11428571 L22.6285714,4.11428571 L22.6285714,12.5873597 C22.6285714,13.1915731 22.7555619,13.6430651 23.0064456,13.9425771 C23.2619753,14.2465372 23.6352034,14.4 24.1377451,14.4 Z" id="Shape"></path>
            </g>
        </g>
    </g>
</svg>