<?xml version="1.0" encoding="UTF-8"?>
<svg width="16px" height="32px" viewBox="0 0 16 32" version="1.1" xmlns="http://www.w3.org/2000/svg" xmlns:xlink="http://www.w3.org/1999/xlink">
    <!-- Generator: Sketch 47 (45396) - http://www.bohemiancoding.com/sketch -->
    <title>Icon_Facebook_blank</title>
    <desc>Created with Sketch.</desc>
    <defs></defs>
    <g id="BITS_Landing_Page" stroke="none" stroke-width="1" fill="none" fill-rule="evenodd">
        <g id="BITS_2017_Images" transform="translate(-159.000000, -838.000000)">
            <g id="Icon_Facebook_blank" transform="translate(154.000000, 836.000000)">
                <rect id="Rectangle-18" opacity="0.243772645" x="0" y="0" width="24" height="36"></rect>
                <path d="M20.3722163,19.5341746 L15.5490279,19.5341746 C15.5490279,27.3816534 15.5490279,34 15.5490279,34 L8.40021209,34 C8.40021209,34 8.40021209,27.480697 8.40021209,19.5341746 L5,19.5341746 L5,13.3508587 L8.40021209,13.3508587 L8.40021209,9.34419909 C8.40021209,6.47654098 9.73722163,2 15.6157653,2 L20.9095087,2.02073006 L20.9095087,8.0266887 L17.065889,8.0266887 C16.4381053,8.0266887 15.5501591,8.34570127 15.5501591,9.70927845 L15.5501591,13.3520104 L21,13.3520104 L20.3722163,19.5341746 Z" id="Path" fill="#FFFFFF"></path>
            </g>
        </g>
    </g>
</svg>