<?xml version="1.0" encoding="UTF-8"?>
<svg width="32px" height="26px" viewBox="0 0 32 26" version="1.1" xmlns="http://www.w3.org/2000/svg" xmlns:xlink="http://www.w3.org/1999/xlink">
    <!-- Generator: Sketch 47 (45396) - http://www.bohemiancoding.com/sketch -->
    <title>Icon_Twitter_blank</title>
    <desc>Created with Sketch.</desc>
    <defs></defs>
    <g id="BITS_Landing_Page" stroke="none" stroke-width="1" fill="none" fill-rule="evenodd">
        <g id="BITS_2017_Images" transform="translate(-81.000000, -841.000000)">
            <g id="Icon_Twitter_blank" transform="translate(81.000000, 836.000000)">
                <rect id="Rectangle-18" fill="#D8D8D8" opacity="0" x="0" y="0" width="33" height="36"></rect>
                <path d="M28.7245677,11.4769963 C28.7383212,11.7583289 28.7436109,12.0407192 28.7436109,12.3262824 C28.7436109,21 22.1398486,31 10.064337,31 C6.35725857,31 2.90514762,29.9138022 0,28.0523533 C0.514166694,28.1126388 1.03573908,28.1433104 1.56577512,28.1433104 C4.64231163,28.1433104 7.47340232,27.0941301 9.71944325,25.3342147 C6.84709227,25.280275 4.42331471,23.3818086 3.58752934,20.7747224 C3.98743677,20.8529878 4.39898172,20.8921206 4.82216418,20.8921206 C5.42096737,20.8921206 6.00072734,20.8138551 6.5519225,20.6626124 C3.54732701,20.0597567 1.28435878,17.4050767 1.28435878,14.2279217 C1.28435878,14.1993654 1.28435878,14.1718667 1.28541674,14.1433104 C2.16986809,14.6351137 3.18233213,14.9301957 4.2593315,14.9650978 C2.49677654,13.7858276 1.33831454,11.7794818 1.33831454,9.50132205 C1.33831454,8.29878371 1.66204913,7.17028027 2.22699772,6.2014807 C5.46540153,10.1718667 10.3034351,12.7852988 15.7603729,13.0581703 C15.6482296,12.5790587 15.590042,12.076679 15.590042,11.5626653 C15.590042,7.93918562 18.5290442,5 22.1557179,5 C24.0441697,5 25.749595,5.79746166 26.9472014,7.07191962 C28.4431514,6.77895293 29.8481172,6.23109466 31.1166066,5.47911158 C30.624657,7.0126917 29.5846861,8.29878371 28.2283863,9.10999471 C29.5582372,8.95134849 30.8235527,8.59809625 32,8.07667901 C31.1218964,9.39555791 30.0078685,10.55156 28.7245677,11.4769963 Z" id="Path-Copy" fill="#FFFFFF"></path>
            </g>
        </g>
    </g>
</svg>